<?xml version="1.0" encoding="UTF-8"?>
<svg xmlns:xodm="http://www.corel.com/coreldraw/odm/2003" xmlns="http://www.w3.org/2000/svg" xmlns:xlink="http://www.w3.org/1999/xlink" version="1.1" id="Layer_1" x="0px" y="0px" viewBox="0 0 479.8 179.9" style="enable-background:new 0 0 479.8 179.9;" xml:space="preserve"> <style type="text/css"> .st0{fill:#2D3E59;} .st1{fill-rule:evenodd;clip-rule:evenodd;fill:#EC3539;} .st2{fill-rule:evenodd;clip-rule:evenodd;fill:#D1353A;} .st3{fill:#D7343A;} </style> <g id="Layer_x0020_1"> <g id="_1925620078848"> <path class="st0" d="M10.3,123.6c-1.2,0-2.2-0.4-3-1.3c-0.8-0.8-1.2-1.8-1.2-2.9V24.6c0-1.1,0.4-2.1,1.2-2.9 c0.8-0.8,1.8-1.3,3-1.3c1.2,0,2.2,0.4,3,1.3c0.8,0.8,1.2,1.8,1.2,2.9v94.7c0,1.1-0.4,2.1-1.2,2.9 C12.5,123.1,11.5,123.6,10.3,123.6z M57.5,52.1L57.5,52.1c1.1,0,2.1,0.4,2.9,1.3c0.8,0.9,1.3,1.8,1.3,2.9c0,1.2-0.5,2.3-1.5,3.2 L13.3,99.3l-0.4-9.9l41.8-35.9C55.6,52.5,56.5,52.1,57.5,52.1L57.5,52.1z M58.8,123.6L58.8,123.6c-1.2,0-2.3-0.5-3.2-1.5 L23.9,88.3l6.3-5.7l31.5,33.6c0.8,0.9,1.3,2,1.3,3.2c0,1.3-0.5,2.3-1.5,3.1C60.4,123.2,59.5,123.6,58.8,123.6z"/> <path class="st0" d="M142.5,87.9c0,7.1-1.6,13.4-4.7,19c-3.1,5.6-7.3,10-12.6,13.2c-5.3,3.2-11.3,4.8-18,4.8 c-6.6,0-12.6-1.6-17.9-4.8c-5.3-3.2-9.6-7.6-12.7-13.2c-3.1-5.6-4.7-12-4.7-19c0-7.2,1.6-13.5,4.7-19.1c3.1-5.6,7.3-10,12.7-13.2 c5.3-3.3,11.3-4.9,17.9-4.9c6.7,0,12.7,1.6,18,4.9c5.3,3.3,9.5,7.7,12.6,13.2C141,74.4,142.5,80.7,142.5,87.9z M134,87.9L134,87.9 c0-5.7-1.2-10.7-3.5-15.1c-2.3-4.4-5.5-7.9-9.5-10.4c-4-2.5-8.6-3.8-13.7-3.8c-5.1,0-9.7,1.3-13.7,3.8c-4,2.5-7.2,6-9.6,10.4 c-2.4,4.4-3.6,9.5-3.6,15.1c0,5.7,1.2,10.7,3.6,15c2.4,4.4,5.6,7.8,9.6,10.4c4,2.6,8.6,3.8,13.7,3.8c5.1,0,9.7-1.3,13.7-3.8 c4-2.6,7.2-6,9.5-10.4C132.8,98.6,134,93.6,134,87.9z"/> <path class="st0" d="M190.3,50.7c4.6,0,8.7,0.5,12.4,1.5c3.7,1,6.7,2.3,9,4c2.3,1.7,3.4,3.5,3.4,5.4c0,0.9-0.3,1.8-1,2.7 c-0.7,0.9-1.6,1.3-2.7,1.3c-1.1,0-2-0.3-2.7-0.8c-0.7-0.5-1.4-1.2-2-2c-0.6-0.8-1.6-1.5-2.9-2c-1.2-0.6-2.9-1.2-5.2-1.6 c-2.3-0.4-4.8-0.6-7.6-0.6c-5.2,0-9.9,1.3-14.1,3.9c-4.2,2.6-7.5,6.1-9.9,10.5c-2.4,4.4-3.6,9.3-3.6,14.8c0,5.6,1.1,10.6,3.4,15 c2.3,4.5,5.5,8,9.6,10.5c4.1,2.6,8.9,3.8,14.3,3.8c3.7,0,6.6-0.3,8.6-1c2-0.6,3.8-1.4,5.3-2.2c1.8-1,3.1-2,3.9-3 c0.8-1,1.9-1.5,3.2-1.5c1.1,0,2,0.3,2.6,1c0.6,0.7,1,1.6,1,2.7c0,1.5-1.1,3.1-3.3,4.9c-2.2,1.8-5.2,3.4-9,4.7 c-3.8,1.3-8.2,2-13.2,2c-6.9,0-12.9-1.6-18.2-4.9c-5.2-3.3-9.3-7.7-12.3-13.3c-2.9-5.6-4.4-12-4.4-19c0-6.8,1.5-13,4.5-18.5 c3-5.6,7.1-10.1,12.4-13.4C177.1,52.4,183.2,50.7,190.3,50.7L190.3,50.7z"/> <path class="st0" d="M263.7,51.8c5.9,0,10.6,1.3,14.2,3.8c3.6,2.5,6.3,5.9,8,10.2c1.7,4.3,2.6,9,2.6,14.2v39.4 c0,1.1-0.4,2.1-1.3,2.9c-0.8,0.8-1.8,1.3-2.9,1.3c-1.3,0-2.3-0.4-3.1-1.3c-0.8-0.8-1.2-1.8-1.2-2.9V79.9c0-3.8-0.6-7.2-1.7-10.2 c-1.2-3-3-5.5-5.6-7.3c-2.6-1.9-6-2.8-10.4-2.8c-3.9,0-7.6,0.9-11.1,2.8c-3.5,1.9-6.3,4.3-8.4,7.3c-2.1,3-3.2,6.4-3.2,10.2v39.4 c0,1.1-0.4,2.1-1.3,2.9c-0.8,0.8-1.8,1.3-2.9,1.3c-1.3,0-2.3-0.4-3.1-1.3c-0.8-0.8-1.2-1.8-1.2-2.9V24.6c0-1.1,0.4-2.1,1.3-2.9 c0.8-0.8,1.9-1.3,3.1-1.3c1.2,0,2.2,0.4,3,1.3c0.8,0.8,1.2,1.8,1.2,2.9v45.1l-3.2,4.9c0.2-2.9,1.1-5.7,2.7-8.4 c1.6-2.7,3.7-5.2,6.3-7.4c2.6-2.2,5.5-3.9,8.6-5.2C257.3,52.4,260.5,51.8,263.7,51.8L263.7,51.8z"/> <path class="st0" d="M318.5,119.4c0,1.1-0.4,2.1-1.3,2.9c-0.8,0.8-1.8,1.3-2.9,1.3c-1.3,0-2.3-0.4-3.1-1.3 c-0.7-0.8-1.1-1.8-1.1-2.9V55.3c0-1.1,0.4-2.1,1.2-2.9c0.8-0.8,1.8-1.3,3-1.3c1.2,0,2.2,0.4,3,1.3c0.8,0.8,1.2,1.8,1.2,2.9V119.4z "/> <path class="st0" d="M338.6,50.8c0.7,0,1.5,0.2,2.2,0.7c0.7,0.5,1.3,1.2,1.7,2.1l24.4,58l-1.8,1.1L390,53.6c0.7-1.9,2.1-2.7,4-2.6 c0.9,0,1.8,0.3,2.6,1c0.8,0.7,1.3,1.5,1.3,2.5c0,0.6-0.1,1-0.2,1.4c-0.1,0.4-0.3,0.7-0.4,1L370,120.9c-0.7,1.7-2,2.6-3.8,2.6 c-0.8,0.1-1.7-0.1-2.5-0.6c-0.8-0.5-1.4-1.2-1.7-2l-27.4-64c-0.1-0.3-0.2-0.6-0.3-1c-0.1-0.4-0.1-0.7-0.1-1.1c0-1,0.4-2,1.1-2.8 C336.1,51.2,337.2,50.8,338.6,50.8L338.6,50.8z"/> <path class="st0" d="M471.5,52.4c1.2,0,2.2,0.4,3,1.3c0.8,0.8,1.2,1.9,1.2,3.1v62.7c0,1.1-0.4,2.1-1.3,2.9 c-0.8,0.8-1.8,1.3-2.9,1.3c-1.3,0-2.3-0.4-3.1-1.3c-0.8-0.8-1.2-1.8-1.2-2.9v-16.6l2.5-1c0,2.5-0.7,5.1-2.2,7.9 c-1.4,2.7-3.4,5.3-5.9,7.5c-2.5,2.3-5.5,4.1-8.8,5.6c-3.4,1.4-7.1,2.2-11.1,2.2c-6.2,0-11.8-1.6-16.8-4.9 c-5-3.3-8.9-7.7-11.7-13.4c-2.8-5.7-4.2-12-4.2-19.1c0-7.2,1.4-13.6,4.3-19.2c2.9-5.5,6.8-9.9,11.7-13c4.9-3.2,10.5-4.7,16.6-4.7 c4,0,7.7,0.7,11.2,2.1c3.5,1.4,6.5,3.3,9.1,5.7c2.6,2.4,4.6,5.2,6.1,8.3c1.4,3.1,2.2,6.3,2.2,9.7l-2.9-2.1V56.7 c0-1.2,0.4-2.2,1.2-3.1C469.1,52.8,470.2,52.4,471.5,52.4L471.5,52.4z M442.5,117.1L442.5,117.1c4.9,0,9.3-1.3,13.1-3.8 c3.8-2.6,6.8-6.1,9-10.6c2.2-4.5,3.3-9.5,3.3-15.1c0-5.4-1.1-10.3-3.3-14.7c-2.2-4.4-5.2-7.9-9-10.5c-3.8-2.6-8.2-3.8-13.1-3.8 c-4.8,0-9.2,1.2-13,3.7c-3.9,2.5-6.9,5.9-9.1,10.2c-2.2,4.4-3.3,9.4-3.3,15c0,5.6,1.1,10.6,3.2,15.1c2.1,4.5,5.1,8,9,10.6 C433.2,115.9,437.6,117.1,442.5,117.1L442.5,117.1z"/> <polygon class="st1" points="320.8,0 316.1,40.2 305.4,23.5 285,21.7 "/> <polygon class="st2" points="320.8,0 316.1,40.2 305.4,23.6 320.8,0 "/> <path class="st3" d="M26.6,159.8c0.5,0,0.9,0.2,1.3,0.5c0.3,0.4,0.5,0.8,0.5,1.3v8.7c0,0.7-0.3,1.2-0.9,1.6 c-1.2,0.8-2.5,1.4-3.9,1.8c-1.4,0.4-2.9,0.6-4.4,0.6c-2.6,0-4.9-0.6-7.1-1.9c-2.2-1.2-3.9-2.9-5.1-5.1c-1.2-2.1-1.9-4.5-1.9-7 c0-2.6,0.6-4.9,1.9-7c1.2-2.1,2.9-3.8,5.1-5.1c2.2-1.2,4.5-1.9,7.1-1.9c1.3,0,2.5,0.1,3.7,0.4c1.2,0.3,2.3,0.7,3.2,1.3 c0.3,0.2,0.5,0.4,0.7,0.7c0.2,0.3,0.2,0.5,0.2,0.9c0,0.5-0.2,1-0.5,1.3c-0.3,0.4-0.8,0.6-1.3,0.6c-0.4,0-0.7-0.1-1-0.3 c-1.7-0.8-3.4-1.2-5.1-1.2c-1.9,0-3.6,0.5-5.1,1.4c-1.5,0.9-2.7,2.1-3.6,3.7c-0.9,1.6-1.3,3.3-1.3,5.2c0,1.9,0.4,3.6,1.3,5.2 c0.9,1.6,2.1,2.8,3.6,3.7c1.5,0.9,3.2,1.4,5.1,1.4c0.9,0,1.8-0.1,2.8-0.3c1-0.2,1.8-0.5,2.5-0.8v-6.2h-4.7c-0.5,0-1-0.2-1.3-0.5 c-0.4-0.3-0.5-0.8-0.5-1.3c0-0.5,0.2-1,0.5-1.3c0.4-0.3,0.8-0.5,1.3-0.5L26.6,159.8L26.6,159.8z M50.9,163.1 c0,0.5-0.2,0.9-0.6,1.2c-0.4,0.3-0.8,0.5-1.3,0.5H35.4c0.2,1.9,0.9,3.4,2.1,4.5c1.3,1.1,2.8,1.7,4.6,1.7c1.2,0,2.2-0.2,3-0.5 c0.8-0.4,1.5-0.8,2.1-1.4c0.4-0.2,0.8-0.3,1.1-0.3c0.4,0,0.8,0.2,1.1,0.5c0.3,0.3,0.4,0.7,0.4,1.1c0,0.5-0.3,1-0.8,1.5 c-0.7,0.7-1.7,1.4-3,1.9c-1.2,0.5-2.5,0.8-3.8,0.8c-2.1,0-3.9-0.4-5.5-1.3c-1.6-0.9-2.8-2.1-3.7-3.7c-0.9-1.6-1.3-3.4-1.3-5.3 c0-2.2,0.4-4.1,1.3-5.7s2.1-2.9,3.5-3.8c1.5-0.9,3-1.3,4.7-1.3c1.7,0,3.2,0.4,4.6,1.3c1.4,0.9,2.6,2,3.5,3.5 C50.4,159.6,50.9,161.2,50.9,163.1L50.9,163.1z M41.4,156.7c-1.4,0-2.7,0.4-3.8,1.2c-1.1,0.8-1.8,2.1-2.1,3.8H47v-0.3 c-0.1-1.4-0.7-2.5-1.8-3.4C44.1,157.1,42.8,156.7,41.4,156.7L41.4,156.7z M60.7,157.3v11.5c0,1.3,0.6,1.9,1.7,1.9 c0.2,0,0.4,0,0.7-0.1c0.3-0.1,0.6-0.1,0.7-0.1c0.3,0,0.6,0.1,0.9,0.4c0.2,0.3,0.3,0.6,0.3,1.1c0,0.5-0.3,1-0.9,1.4 c-0.6,0.4-1.3,0.6-2.1,0.6c-0.9,0-1.6-0.1-2.3-0.3c-0.7-0.2-1.3-0.6-1.9-1.4c-0.6-0.7-0.8-1.9-0.8-3.3v-11.7h-2.2 c-0.5,0-0.9-0.2-1.2-0.5c-0.3-0.3-0.5-0.7-0.5-1.2c0-0.5,0.2-0.9,0.5-1.2s0.7-0.5,1.2-0.5H57v-3.3c0-0.5,0.2-1,0.5-1.3 c0.3-0.4,0.8-0.5,1.3-0.5c0.5,0,0.9,0.2,1.3,0.5c0.3,0.4,0.5,0.8,0.5,1.3v3.3h3.2c0.5,0,0.9,0.2,1.2,0.5c0.3,0.3,0.5,0.7,0.5,1.2 c0,0.5-0.2,0.9-0.5,1.2c-0.3,0.3-0.7,0.5-1.2,0.5L60.7,157.3L60.7,157.3z M68.7,170.8c-0.2-0.4-0.3-0.7-0.3-1c0-0.5,0.3-1,0.8-1.3 c0.3-0.2,0.6-0.3,0.9-0.3c0.5,0,0.9,0.2,1.3,0.6c0.8,0.9,1.6,1.5,2.5,2c0.9,0.4,2,0.7,3.2,0.7c1,0,1.8-0.3,2.6-0.7 c0.7-0.4,1.1-1.1,1.1-2.1c0-0.9-0.4-1.5-1.1-2c-0.8-0.5-1.9-0.9-3.3-1.3c-1.4-0.4-2.6-0.8-3.6-1.2c-1-0.4-1.8-1-2.4-1.9 c-0.7-0.8-1-1.9-1-3.2c0-1.2,0.3-2.2,1-3.1c0.7-0.9,1.5-1.6,2.6-2.1c1.1-0.5,2.3-0.7,3.6-0.7c1.2,0,2.5,0.2,3.7,0.7 c1.2,0.5,2.2,1.2,3,2.1c0.3,0.4,0.5,0.7,0.5,1.1c0,0.4-0.2,0.8-0.6,1.2c-0.3,0.2-0.6,0.3-1,0.3c-0.5,0-0.8-0.2-1.1-0.5 c-0.5-0.6-1.2-1.1-2-1.4c-0.8-0.3-1.7-0.5-2.6-0.5c-1,0-1.8,0.2-2.5,0.6c-0.7,0.4-1,1.1-1,2c0,0.9,0.4,1.6,1.2,2 c0.8,0.4,1.9,0.9,3.5,1.3c1.4,0.4,2.5,0.7,3.4,1.2c0.9,0.4,1.7,1,2.3,1.8c0.6,0.8,0.9,1.9,0.9,3.2c0,1.2-0.3,2.3-1,3.2 c-0.7,0.9-1.6,1.6-2.7,2.1c-1.1,0.5-2.3,0.7-3.6,0.7c-1.6,0-3.1-0.3-4.5-0.9C70.8,173,69.7,172.1,68.7,170.8L68.7,170.8z M118.1,148.7c0,0.4-0.1,0.8-0.3,1.2l-8.3,11.7v10.6c0,0.5-0.2,1-0.5,1.3c-0.3,0.4-0.8,0.5-1.3,0.5c-0.5,0-1-0.2-1.3-0.5 c-0.4-0.4-0.5-0.8-0.5-1.3v-10.9l-8.3-11.2c-0.4-0.5-0.5-0.9-0.5-1.4c0-0.5,0.2-1,0.6-1.3c0.4-0.4,0.9-0.5,1.4-0.5 c0.6,0,1.1,0.3,1.5,0.9l7.3,10.1l7-10c0.4-0.6,0.9-0.9,1.5-0.9c0.5,0,0.9,0.2,1.3,0.5C117.9,147.7,118.1,148.1,118.1,148.7z M140.7,163.9c0,2-0.5,3.8-1.4,5.4c-0.9,1.6-2.1,2.9-3.7,3.8c-1.6,0.9-3.3,1.4-5.2,1.4c-1.9,0-3.6-0.5-5.2-1.4 c-1.6-0.9-2.8-2.2-3.7-3.8c-0.9-1.6-1.4-3.4-1.4-5.4c0-2,0.5-3.8,1.4-5.5c0.9-1.6,2.1-2.9,3.7-3.8c1.6-0.9,3.3-1.4,5.2-1.4 c1.9,0,3.6,0.5,5.2,1.4c1.6,0.9,2.8,2.2,3.7,3.8C140.3,160,140.7,161.9,140.7,163.9z M137.1,163.9c0-1.4-0.3-2.6-0.9-3.7 c-0.6-1.1-1.4-1.9-2.4-2.6c-1-0.6-2.1-0.9-3.3-0.9c-1.2,0-2.3,0.3-3.3,0.9c-1,0.6-1.8,1.5-2.4,2.6c-0.6,1.1-0.9,2.3-0.9,3.7 c0,1.4,0.3,2.6,0.9,3.7c0.6,1.1,1.4,1.9,2.4,2.5c1,0.6,2.1,0.9,3.3,0.9c1.2,0,2.3-0.3,3.3-0.9c1-0.6,1.8-1.5,2.4-2.5 C136.8,166.5,137.1,165.2,137.1,163.9z M160.1,153.7c0.5,0,1,0.2,1.3,0.5c0.3,0.4,0.5,0.8,0.5,1.3v10.3c0,2.7-0.7,4.8-2.2,6.3 c-1.5,1.5-3.6,2.2-6.3,2.2c-2.7,0-4.8-0.7-6.2-2.2c-1.5-1.5-2.2-3.6-2.2-6.3v-10.3c0-0.5,0.2-1,0.5-1.3c0.3-0.4,0.8-0.5,1.3-0.5 c0.5,0,1,0.2,1.3,0.5c0.3,0.4,0.5,0.8,0.5,1.3v10.3c0,3.4,1.6,5.1,4.8,5.1c1.6,0,2.8-0.4,3.6-1.3c0.8-0.9,1.2-2.1,1.2-3.8v-10.3 c0-0.5,0.2-1,0.5-1.3C159.1,153.9,159.6,153.7,160.1,153.7z M199.4,171.6c0.1,0.2,0.1,0.5,0.1,0.7c0,0.5-0.2,0.9-0.5,1.3 c-0.3,0.3-0.8,0.5-1.2,0.5c-0.4,0-0.7-0.1-1-0.3c-0.3-0.2-0.5-0.5-0.7-0.9l-2.4-5.7h-12l-2.4,5.7c-0.1,0.4-0.3,0.7-0.6,0.9 c-0.3,0.2-0.6,0.3-1,0.3c-0.5,0-1-0.1-1.2-0.4c-0.3-0.3-0.4-0.7-0.4-1.2c0-0.1,0-0.3,0.1-0.6L186,148c0.2-0.4,0.4-0.7,0.8-0.9 c0.3-0.2,0.7-0.3,1.1-0.3c0.4,0,0.7,0.1,1,0.3c0.3,0.2,0.5,0.5,0.7,0.9L199.4,171.6L199.4,171.6z M183.2,163.7h9l-4.5-10.8 L183.2,163.7L183.2,163.7z M213.1,153.4c4.5,0,6.8,2.8,6.8,8.4v10.3c0,0.5-0.2,1-0.5,1.3c-0.3,0.4-0.8,0.5-1.3,0.5 c-0.5,0-0.9-0.2-1.3-0.5c-0.3-0.4-0.5-0.8-0.5-1.3v-10.3c0-3.4-1.4-5-4.3-5c-1.5,0-2.8,0.5-3.8,1.5c-1,1-1.5,2.2-1.5,3.6v10.3 c0,0.5-0.2,1-0.5,1.3c-0.3,0.4-0.8,0.5-1.3,0.5c-0.5,0-1-0.2-1.3-0.5c-0.3-0.3-0.5-0.8-0.5-1.3v-24.9c0-0.5,0.2-1,0.5-1.3 c0.3-0.4,0.8-0.5,1.3-0.5c0.5,0,1,0.2,1.3,0.5c0.3,0.4,0.5,0.8,0.5,1.3v9.8c0.6-1,1.5-1.9,2.7-2.6 C210.5,153.7,211.8,153.4,213.1,153.4L213.1,153.4z M243.2,163.1c0,0.5-0.2,0.9-0.6,1.2c-0.4,0.3-0.8,0.5-1.3,0.5h-13.6 c0.2,1.9,0.9,3.4,2.1,4.5c1.3,1.1,2.8,1.7,4.6,1.7c1.2,0,2.2-0.2,3-0.5c0.8-0.4,1.5-0.8,2.1-1.4c0.4-0.2,0.8-0.3,1.1-0.3 c0.4,0,0.8,0.2,1.1,0.5c0.3,0.3,0.4,0.7,0.4,1.1c0,0.5-0.3,1-0.8,1.5c-0.7,0.7-1.7,1.4-3,1.9c-1.2,0.5-2.5,0.8-3.8,0.8 c-2.1,0-3.9-0.4-5.5-1.3c-1.6-0.9-2.8-2.1-3.7-3.7c-0.9-1.6-1.3-3.4-1.3-5.3c0-2.2,0.4-4.1,1.3-5.7c0.9-1.6,2.1-2.9,3.5-3.8 c1.5-0.9,3-1.3,4.7-1.3c1.7,0,3.2,0.4,4.6,1.3c1.4,0.9,2.6,2,3.5,3.5C242.7,159.6,243.2,161.2,243.2,163.1L243.2,163.1z M233.7,156.7c-1.4,0-2.7,0.4-3.8,1.2c-1.1,0.8-1.8,2.1-2.1,3.8h11.4v-0.3c-0.1-1.4-0.7-2.5-1.8-3.4 C236.4,157.1,235.1,156.7,233.7,156.7L233.7,156.7z M263.9,153.5c0.5,0,1,0.2,1.3,0.5c0.3,0.3,0.5,0.8,0.5,1.4v16.8 c0,0.5-0.2,1-0.5,1.3c-0.3,0.4-0.8,0.5-1.3,0.5c-0.5,0-1-0.2-1.3-0.5c-0.3-0.3-0.5-0.8-0.5-1.3v-1c-0.7,0.9-1.6,1.7-2.7,2.3 c-1.2,0.6-2.4,0.9-3.8,0.9c-1.8,0-3.3-0.5-4.8-1.4c-1.4-0.9-2.6-2.2-3.4-3.8c-0.8-1.6-1.2-3.4-1.2-5.4c0-2,0.4-3.8,1.2-5.4 c0.8-1.6,1.9-2.9,3.3-3.8c1.4-0.9,3-1.4,4.7-1.4c1.4,0,2.6,0.3,3.8,0.9c1.2,0.6,2.1,1.3,2.8,2.2v-0.9c0-0.5,0.2-1,0.5-1.4 C262.9,153.6,263.4,153.5,263.9,153.5L263.9,153.5z M256,171c1.2,0,2.3-0.3,3.2-0.9c0.9-0.6,1.7-1.5,2.2-2.6 c0.5-1.1,0.8-2.3,0.8-3.7c0-1.3-0.3-2.6-0.8-3.6c-0.5-1.1-1.3-1.9-2.2-2.6c-0.9-0.6-2-0.9-3.2-0.9c-1.2,0-2.3,0.3-3.2,0.9 c-0.9,0.6-1.7,1.5-2.2,2.6c-0.5,1.1-0.8,2.3-0.8,3.7c0,1.4,0.3,2.6,0.8,3.7c0.5,1.1,1.3,1.9,2.2,2.6 C253.7,170.7,254.8,171,256,171L256,171z M287.7,145.4c0.5,0,1,0.2,1.3,0.5c0.3,0.3,0.5,0.8,0.5,1.3v24.9c0,0.5-0.2,1-0.5,1.3 c-0.3,0.4-0.8,0.5-1.3,0.5c-0.5,0-1-0.2-1.3-0.5c-0.3-0.3-0.5-0.8-0.5-1.3v-1.1c-0.6,0.9-1.6,1.7-2.7,2.4c-1.2,0.6-2.4,1-3.8,1 c-1.8,0-3.3-0.5-4.8-1.4c-1.4-0.9-2.5-2.2-3.4-3.8c-0.8-1.6-1.2-3.4-1.2-5.4c0-2,0.4-3.8,1.2-5.4c0.8-1.6,1.9-2.9,3.3-3.8 c1.4-0.9,3-1.4,4.7-1.4c1.4,0,2.6,0.3,3.8,0.9c1.2,0.6,2.1,1.3,2.8,2.2v-9.1c0-0.5,0.2-1,0.5-1.3 C286.7,145.5,287.1,145.4,287.7,145.4L287.7,145.4z M279.8,171c1.2,0,2.3-0.3,3.2-0.9c0.9-0.6,1.7-1.5,2.2-2.6 c0.5-1.1,0.8-2.3,0.8-3.7c0-1.3-0.3-2.6-0.8-3.7c-0.5-1.1-1.3-2-2.2-2.6c-0.9-0.6-2-0.9-3.2-0.9c-1.2,0-2.3,0.3-3.2,0.9 c-0.9,0.6-1.7,1.5-2.2,2.6c-0.5,1.1-0.8,2.3-0.8,3.7c0,1.4,0.3,2.6,0.8,3.7c0.5,1.1,1.3,1.9,2.2,2.6 C277.5,170.7,278.6,171,279.8,171z"/> </g> </g> </svg>